<mxfile host="app.diagrams.net" modified="2024-05-24T12:20:57.381Z" agent="Mozilla/5.0 (Windows NT 10.0; Win64; x64) AppleWebKit/537.36 (KHTML, like Gecko) Chrome/125.0.0.0 Safari/537.36" version="24.4.7" etag="KWLVn45NyEE8VO_lFBTQ" type="github">
  <diagram name="PÃ¡gina-1" id="IZPqQKnVb96kS0abLZp0">
    <mxGraphModel>
      <root>
        <mxCell id="0" />
        <mxCell id="1" parent="0" />
      </root>
    </mxGraphModel>
  </diagram>
</mxfile>
